<svg width="120" height="120" xmlns="http://www.w3.org/2000/svg">

 <g>
  <rect fill="none" id="canvas_background" height="122" width="122" y="0" x="0"/>
 </g>
 <g>
  <g transform="translate(-120,-180) scale(0.7) ">
   <path id="emz-log" fill="none" stroke="#ffffff" stroke-width="7" stroke-linecap="round" troke-linejoin="round" d="m339.434338,390.968456l-16.505689,-5.765978c0.12492,-1.08474 0.184813,-2.178124 0.184813,-3.270643c0,-4.094354 0.091551,-14.428343 0.088984,-26.980214l15.086222,-4.399465c1.815617,-0.529837 2.862891,-2.446932 2.338399,-4.280186l-0.376471,-1.316382c-0.524493,-1.834983 -2.421393,-2.892929 -4.237011,-2.363092l-12.828251,3.74257c-0.099251,-24.535011 -0.658824,-53.566291 -2.844068,-62.072211c-3.636368,-14.153484 -10.802152,-12.74894 -17.433176,-6.482512s-25.454576,28.090884 -25.454576,28.090884l-18.504408,0l-3.640646,0l-18.498418,0c0,0 -18.823552,-21.824456 -25.454576,-28.090884s-13.796808,-7.670972 -17.433176,6.482512c-2.185243,8.50592 -2.744816,37.537201 -2.844068,62.072211l-12.829107,-3.74257c-1.815617,-0.529837 -3.712518,0.528109 -4.237011,2.363092l-0.376471,1.316382c-0.523637,1.833254 0.523637,3.750349 2.338399,4.280186l15.086222,4.400329c-0.002567,12.551007 0.088984,22.884995 0.088984,26.97935c0,1.092519 0.059893,2.185903 0.183957,3.270643l-16.505689,5.765978c-1.785671,0.62405 -2.732838,2.59214 -2.115083,4.397736l0.443209,1.294774c0.617755,1.803867 2.566848,2.760686 4.352519,2.1375l16.110394,-5.628549c3.425031,6.95876 10.671243,12.207002 23.306125,12.207002c4.19423,0 9.706964,0 15.74419,0c21.209865,0 48.918134,0 48.918134,0c6.040649,0 11.554239,0 15.75018,0c12.634882,0 19.880238,-5.248242 23.305269,-12.207002l16.110394,5.628549c1.785671,0.62405 3.734764,-0.333633 4.352519,-2.1375l0.443209,-1.294774c0.61861,-1.805596 -0.329412,-3.773686 -2.114227,-4.397736zm-112.731688,-57.547418c0,-1.909316 1.532408,-3.45734 3.422464,-3.45734l54.010761,0c1.890056,0 3.422464,1.548024 3.422464,3.45734l0,4.213633c0,1.909316 -1.532408,3.45734 -3.422464,3.45734l-54.010761,0c-1.890056,0 -3.422464,-1.548024 -3.422464,-3.45734l0,-4.213633zm66.542113,43.864996c0,1.909316 -1.532408,3.45734 -3.422464,3.45734l-65.383609,0c-1.890056,0 -3.422464,-1.548024 -3.422464,-3.45734l0,-4.213633c0,-1.909316 1.532408,-3.45734 3.422464,-3.45734l65.383609,0c1.890056,0 3.422464,1.548024 3.422464,3.45734l0,4.213633z"/>
  </g>
 </g>
</svg>